<?xml version='1.0' encoding='utf-8'?>
<svg xmlns="http://www.w3.org/2000/svg" viewBox="0 0 800 800"><defs><style>.a{fill:none;}.b{fill:#1c8adb;}.c{clip-path:url(#a);}.d{opacity:0.42;fill:url(#b);}.e{fill:#fff;}</style><clipPath id="a"><circle class="a" cx="400" cy="400" r="400"/></clipPath><linearGradient id="b" x1="420.61" y1="378.83" x2="162.24" y2="637.19" gradientUnits="userSpaceOnUse"><stop offset="0"/><stop offset="1" stop-opacity="0"/></linearGradient></defs><circle class="b" cx="400" cy="400" r="400"/><g class="c"><path class="d" d="M289.25,792.25l249-249a18.44,18.44,0,0,0,6.23-13.82v-260a18.51,18.51,0,0,0-18.5-18.5H274a18.46,18.46,0,0,0-13.82,6.23L8.35,509C35.28,657.81,125.5,755,289.25,792.25Z"/><path class="e" d="M367.61,294.58l-7.17-7.17a1.64,1.64,0,0,0-2.3,0l-5.5,5.51A4.79,4.79,0,0,0,348,289.2H295.35a3.19,3.19,0,0,0-3.19,3.2v54.21a3.19,3.19,0,0,0,3.19,3.19h54.22a3.19,3.19,0,0,0,3.19-3.19V311.74l14.85-14.86A1.62,1.62,0,0,0,367.61,294.58ZM344.83,343.5H300.09a1.63,1.63,0,0,1-1.63-1.63V297.14a1.63,1.63,0,0,1,1.63-1.63h44.74a1.62,1.62,0,0,1,1.62,1.63v2l-23.31,23.31L310,309.23a1.64,1.64,0,0,0-2.3,0l-7.17,7.18a1.62,1.62,0,0,0,0,2.3L314.82,333h0l7.17,7.17a1.64,1.64,0,0,0,2.3,0l7.17-7.17h0l15-15v23.83A1.62,1.62,0,0,1,344.83,343.5Z"/><path class="e" d="M367.61,375.65l-7.17-7.17a1.62,1.62,0,0,0-2.3,0l-5.5,5.5a4.79,4.79,0,0,0-4.66-3.71H295.35a3.19,3.19,0,0,0-3.19,3.19v54.21a3.19,3.19,0,0,0,3.19,3.2h54.22a3.19,3.19,0,0,0,3.19-3.2V392.8L367.61,378A1.62,1.62,0,0,0,367.61,375.65Zm-22.78,48.91H300.09a1.63,1.63,0,0,1-1.63-1.62V378.2a1.63,1.63,0,0,1,1.63-1.63h44.74a1.62,1.62,0,0,1,1.62,1.63v2l-23.31,23.32L310,390.3a1.62,1.62,0,0,0-2.3,0l-7.17,7.17a1.62,1.62,0,0,0,0,2.3l14.33,14.33h0l7.17,7.17a1.62,1.62,0,0,0,2.3,0l7.17-7.17h0l15-15v23.83A1.62,1.62,0,0,1,344.83,424.56Z"/><path class="e" d="M367.61,456.71l-7.17-7.17a1.62,1.62,0,0,0-2.3,0l-5.5,5.5a4.79,4.79,0,0,0-4.66-3.71H295.35a3.19,3.19,0,0,0-3.19,3.19v54.22a3.19,3.19,0,0,0,3.19,3.19h54.22a3.19,3.19,0,0,0,3.19-3.19V473.86L367.61,459A1.62,1.62,0,0,0,367.61,456.71Zm-22.78,48.92H300.09a1.63,1.63,0,0,1-1.63-1.63V459.26a1.63,1.63,0,0,1,1.63-1.63h44.74a1.62,1.62,0,0,1,1.62,1.63v2l-23.31,23.32L310,471.36a1.62,1.62,0,0,0-2.3,0l-7.17,7.17a1.62,1.62,0,0,0,0,2.3l14.33,14.33h0l7.17,7.17a1.62,1.62,0,0,0,2.3,0l7.17-7.17h0l15-15V504A1.62,1.62,0,0,1,344.83,505.63Z"/><path class="e" d="M526,547.93H274a18.5,18.5,0,0,1-18.5-18.5v-260a18.51,18.51,0,0,1,18.5-18.5H526a18.51,18.51,0,0,1,18.5,18.5v260A18.5,18.5,0,0,1,526,547.93Zm-241.48-21h231a8,8,0,0,0,8-8v-239a8,8,0,0,0-8-8h-231a8,8,0,0,0-8,8v239A8,8,0,0,0,284.51,526.93Z"/></g></svg>